# xmcd
#
# Track frame offsets: 
#        150
#        13955
#        25952
#        41120
#        58542
#        72052
#
# Disc length: 1121 seconds
#
# Revision: 3
# Processed by: cddbd v1.5.2PL0 Copyright (c) Steve Scherf et al.
# Submitted via: ExactAudioCopy v0.99pb4
#
DISCID=4d045f06
DTITLE=Howard Drossin and Tim P. - Comix Zone - Roadkill
DYEAR=1996
DGENRE=Soundtrack
TTITLE0=Into the zone
TTITLE1=Feed my Disease
TTITLE2=10,000 Knives
TTITLE3=Seen It For Days
TTITLE4=Woe is The World
TTITLE5=Last To Follow
EXTD=
EXTT0=
EXTT1=
EXTT2=
EXTT3=
EXTT4=
EXTT5=
PLAYORDER=
